# xmcd CD database file
#
# Track frame offsets:
#	150
#	17550
#	37660
#	62137
#	88305
#	103292
#	120137
#	141257
#	161857
#	186000
#
# Disc length: 2724 seconds
#
# Revision: 0
# Processed by: cddbd v1.4PL0 Copyright (c) Steve Scherf et al.
# Submitted via: CDex 1.51
#
DISCID=800aa20a
DTITLE=Taina - Scene from a trance
DYEAR=1988
DGENRE=Jazz
TTITLE0=Queen of the dark
TTITLE1=Lazy eyes
TTITLE2=Magic act
TTITLE3=Underwater love
TTITLE4=New times
TTITLE5=Visual art
TTITLE6=Scene from a trance
TTITLE7=The freak
TTITLE8=Ambition
TTITLE9=Puppet maker
EXTD=YEAR: 1988
EXTT0=
EXTT1=
EXTT2=
EXTT3=
EXTT4=
EXTT5=
EXTT6=
EXTT7=
EXTT8=
EXTT9=
PLAYORDER=
